<?xml version="1.0" encoding="UTF-8" standalone="no"?>
<!-- Created with Inkscape (http://www.inkscape.org/) -->

<svg
   xmlns:dc="http://purl.org/dc/elements/1.1/"
   xmlns:cc="http://creativecommons.org/ns#"
   xmlns:rdf="http://www.w3.org/1999/02/22-rdf-syntax-ns#"
   xmlns:svg="http://www.w3.org/2000/svg"
   xmlns="http://www.w3.org/2000/svg"
   xmlns:sodipodi="http://sodipodi.sourceforge.net/DTD/sodipodi-0.dtd"
   xmlns:inkscape="http://www.inkscape.org/namespaces/inkscape"
   width="210mm"
   height="297mm"
   viewBox="0 0 210 297"
   version="1.1"
   id="svg8"
   inkscape:version="0.92.4 (5da689c313, 2019-01-14)"
   sodipodi:docname="logo.svg">
  <defs
     id="defs2" />
  <sodipodi:namedview
     id="base"
     pagecolor="#ffffff"
     bordercolor="#666666"
     borderopacity="1.0"
     inkscape:pageopacity="0.0"
     inkscape:pageshadow="2"
     inkscape:zoom="0.24748737"
     inkscape:cx="403.89878"
     inkscape:cy="644.98036"
     inkscape:document-units="mm"
     inkscape:current-layer="layer1"
     showgrid="false"
     inkscape:snap-global="false"
     inkscape:window-width="1280"
     inkscape:window-height="747"
     inkscape:window-x="0"
     inkscape:window-y="0"
     inkscape:window-maximized="1" />
  <metadata
     id="metadata5">
    <rdf:RDF>
      <cc:Work
         rdf:about="">
        <dc:format>image/svg+xml</dc:format>
        <dc:type
           rdf:resource="http://purl.org/dc/dcmitype/StillImage" />
        <dc:title></dc:title>
      </cc:Work>
    </rdf:RDF>
  </metadata>
  <g
     inkscape:label="Layer 1"
     inkscape:groupmode="layer"
     id="layer1">
    <rect
       style="opacity:1;fill:#003939;fill-opacity:1;stroke:none;stroke-width:0.26499999;stroke-linecap:round;stroke-linejoin:round;stroke-miterlimit:4;stroke-dasharray:none;stroke-dashoffset:0;stroke-opacity:1;paint-order:normal"
       id="rect824"
       width="298.6012"
       height="298.6012"
       x="-44.300598"
       y="-0.80059814" />
    <g
       id="g847"
       transform="translate(249.06942,-30.31201)">
      <path
         id="path820"
         transform="scale(0.26458333)"
         d="m -498.25696,448.39301 c -10.69789,22.23801 9.28254,38.11234 17.98632,56.01013 45.7568,94.09088 40.57638,161.00387 30.96595,241.36444 -27.7928,-30.61167 -45.8878,-74.49874 -80.36685,-139.98189 -12.56665,-23.86677 -28.90701,-48.6663 -43.19217,-18.12849 -8.53825,18.25247 -24.11276,31.13847 -40.82993,36.50261 -32.267,10.3537 -29.69656,32.03238 -8.09188,49.1455 83.35501,66.02571 123.41782,86.26695 167.55114,107.37828 -4.00034,24.99051 -8.76315,49.21669 -13.30273,72.62696 -152.74898,-63.51146 -192.52485,-74.86077 -270.77905,-156.83189 -16.53617,-17.32161 -20.49265,-19.8781 -43.2356,-12.99307 l -40.20739,12.17209 c -18.85032,5.70661 -13.6171,30.17192 5.72793,37.04632 112.80211,40.08505 214.63465,79.26345 345.76755,134.84288 -21.25589,111.49506 -32.14484,204.02942 81.76953,273.56642 -57.17999,-100.3267 -73.25969,-179.40909 -69.1875,-267.97072 52.33403,24.73878 172.29586,80.19647 246.25279,166.52012 -39.5645,-128.30565 -169.94333,-158.87394 -245.30943,-182.96543 1.70425,-24.65613 4.6228,-49.13868 8.09766,-73.37891 112.2924,51.60108 363.844278,64.26285 365.861602,314.93664 11.36814,-344.09846 -225.126092,-204.3722 -361.033482,-346.60656 19.80208,-123.62995 56.20405,-229.72713 1.9506,-327.12639 -11.14145,-20.00184 -32.81417,-25.05614 -38.96484,-12.36174 z"
         style="fill:#ffffff;stroke:#000000;stroke-width:0.99999994px;stroke-linecap:butt;stroke-linejoin:miter;stroke-opacity:1"
         inkscape:connector-curvature="0"
         sodipodi:nodetypes="sscssssccssssccccccccscs" />
      <path
         sodipodi:nodetypes="csssssssssssssc"
         inkscape:connector-curvature="0"
         id="path815"
         d="m -231.27329,121.83992 -33.41553,47.89579 c -2.50687,3.59319 -2.41521,4.87181 2.04993,6.37051 12.84695,4.31199 15.55862,-3.977 26.71476,-0.3381 4.97767,1.62361 6.50513,2.41271 11.50381,0.68555 l 49.45944,-17.08937 c 12.18053,-4.20865 14.6789,-7.02651 20.2886,-17.74541 l 21.48391,-41.05102 c 3.45751,-6.606504 1.35392,-6.806027 -0.81823,-11.925979 -4.51665,-10.646164 8.96155,-17.974741 2.19279,-29.323964 -2.87864,-4.826641 -3.73399,-4.263657 -8.28551,-1.404357 l -47.1936,29.647368 c -5.49278,3.450608 -5.94041,6.218923 -8.75205,10.957071 -4.83501,8.147911 -10.43551,15.553001 -14.63678,11.425321 -6.4803,-6.3668 -16.76545,6.49735 -20.59154,11.89659 z"
         style="fill:#ffffff;stroke:#000000;stroke-width:0.26595563px;stroke-linecap:butt;stroke-linejoin:miter;stroke-opacity:1" />
    </g>
  </g>
</svg>
